<svg id="Layer_1" enable-background="new 0 0 512 512" height="512" viewBox="0 0 512 512" width="512" xmlns="http://www.w3.org/2000/svg">
  <g fill="#555">
    <path d="m298.323 280.531c-2.669-3.169-7.397-3.578-10.568-.91-18.783 15.805-44.888 15.814-63.481.022-3.158-2.681-7.89-2.294-10.572.862-2.681 3.157-2.295 7.89.862 10.572 12.148 10.317 26.74 15.474 41.362 15.474 14.608 0 29.246-5.151 41.488-15.452 3.167-2.668 3.575-7.399.909-10.568z"/>
    <path d="m315.5 251.5c4.143 0 7.5-3.358 7.5-7.5v-15c0-4.142-3.357-7.5-7.5-7.5s-7.5 3.358-7.5 7.5v15c0 4.142 3.358 7.5 7.5 7.5z"/>
    <path d="m196.5 221.5c-4.142 0-7.5 3.358-7.5 7.5v15c0 4.142 3.358 7.5 7.5 7.5s7.5-3.358 7.5-7.5v-15c0-4.142-3.358-7.5-7.5-7.5z"/>
    <path d="m354.5 385h-18.319c-2.633-9.502-11.353-16.5-21.681-16.5-2.629 0-5.153.458-7.5 1.29v-15.677c35.619-15.981 62.444-48.164 71.054-87.114h11.946c20.953 0 38-17.047 38-38 0-13.194-6.762-24.834-17-31.65v-22.64c8.729-3.096 15-11.432 15-21.21v-.946c0-15.096-2.26-29.842-6.606-43.861 17.62-10.552 28.381-29.358 28.381-50.17.001-32.269-26.252-58.522-58.522-58.522-17.219 0-33.512 7.645-44.579 20.648-20.281-10.199-42.812-15.594-66.172-15.594-.02 0-.039 0-.059 0l-45 .018c-23.728.009-46.16 5.66-66.039 15.668-11.067-13.059-27.397-20.74-44.657-20.74-32.27 0-58.523 26.253-58.523 58.522 0 20.833 10.781 39.655 28.432 50.201-4.324 13.858-6.656 28.586-6.656 43.848v.929c0 9.778 6.271 18.114 15 21.21v22.64c-10.237 6.815-17 18.456-17 31.65 0 20.953 17.047 38 38 38h11.946c8.61 38.949 35.435 71.132 71.054 87.114v15.653c-2.323-.817-4.818-1.266-7.417-1.266h-.167c-10.312 0-19.016 7.002-21.618 16.5h-18.298c-48.248 0-87.5 39.252-87.5 87.5v12c0 15.164 12.336 27.5 27.5 27.5h257c4.143 0 7.5-3.358 7.5-7.5s-3.357-7.5-7.5-7.5h-257c-6.893 0-12.5-5.607-12.5-12.5v-12c0-39.977 32.523-72.5 72.5-72.5h17.86c3.798 41.159 38.506 73.5 80.64 73.5 42.133 0 76.841-32.341 80.64-73.5h17.86c39.977 0 72.5 32.523 72.5 72.5v12c0 6.893-5.607 12.5-12.5 12.5h-25c-4.143 0-7.5 3.358-7.5 7.5s3.357 7.5 7.5 7.5h25c15.163 0 27.5-12.336 27.5-27.5v-12c0-48.249-39.252-87.501-87.5-87.501zm35.5-133h-9.579c.378-3.95.579-7.952.579-12v-3.5h9.5c4.143 0 7.5-3.358 7.5-7.5s-3.357-7.5-7.5-7.5h-9.5v-15.5h9c12.683 0 23 10.318 23 23s-10.317 23-23 23zm0-61h-16.5c-4.143 0-7.5 3.358-7.5 7.5v23h-7.5c-3.995 0-7.5-3.738-7.5-8v-37.5h45v15.478c-1.955-.311-3.958-.478-6-.478zm9.632-122.667c-4.966-7.11-10.591-13.838-16.853-20.098-.517-.517-1.043-1.02-1.566-1.528 2.344-1.594 5.14-2.481 8.041-2.481 7.883 0 14.296 6.413 14.296 14.296-.001 3.695-1.457 7.195-3.918 9.811zm-10.379-53.333c23.998 0 43.522 19.524 43.522 43.522 0 14.504-7.031 27.696-18.699 35.759-1.909-4.44-4.04-8.785-6.386-13.023 6.742-5.497 10.858-13.842 10.858-22.736 0-16.154-13.143-29.296-29.296-29.296-7.248 0-14.172 2.707-19.486 7.437-3.799-3.004-7.725-5.806-11.765-8.402 8.142-8.389 19.402-13.261 31.252-13.261zm-310.029 43.522c0-23.998 19.525-43.522 43.523-43.522 11.885 0 23.177 4.901 31.323 13.338-4.062 2.606-7.987 5.407-11.764 8.387-5.321-4.771-12.268-7.499-19.56-7.499-16.154 0-29.296 13.142-29.296 29.296 0 8.996 4.136 17.329 10.936 22.809-2.334 4.214-4.469 8.552-6.39 13.004-11.712-8.058-18.772-21.276-18.772-35.813zm33.215 9.896c-2.507-2.616-3.988-6.137-3.988-9.896 0-7.883 6.414-14.296 14.296-14.296 2.935 0 5.756.906 8.113 2.531-6.807 6.605-12.98 13.859-18.421 21.661zm3.561 107.582h45v37.5c0 4.262-3.505 8-7.5 8h-7.5v-23c0-4.142-3.358-7.5-7.5-7.5h-16.5c-2.042 0-4.045.167-6 .478zm6 76c-12.682 0-23-10.318-23-23s10.318-23 23-23h9v15.5h-9.5c-4.142 0-7.5 3.358-7.5 7.5s3.358 7.5 7.5 7.5h9.5v3.5c0 4.048.201 8.05.579 12zm24-12v-3.5h7.5c12.196 0 22.5-10.533 22.5-23v-45c0-1.989-.79-3.897-2.197-5.303-1.406-1.407-3.314-2.197-5.303-2.197h-60c-4.136 0-7.5-3.364-7.5-7.5v-.929c0-73.033 59.417-132.472 132.449-132.5l45-.018h.053c35.38 0 68.647 13.776 93.672 38.791 25.037 25.028 38.826 58.308 38.826 93.71v.946c0 4.136-3.364 7.5-7.5 7.5h-200c-4.142 0-7.5 3.358-7.5 7.5s3.358 7.5 7.5 7.5h132.5v37.5c0 12.467 10.304 23 22.5 23h7.5v3.5c0 60.654-49.346 110-110 110s-110-49.346-110-110zm110 125c12.511 0 24.594-1.856 36-5.292v31.292 1.5c0 19.851-16.149 36-36 36s-36-16.149-36-36v-1.583-31.209c11.406 3.436 23.49 5.292 36 5.292zm66 27.5c0 36.393-29.607 66-66 66s-66-29.607-66-66v-1.583c0-4.089 3.327-7.417 7.417-7.417h.167c4.089 0 7.417 3.327 7.417 7.417v1.583c0 28.122 22.878 51 51 51 28.121 0 51-22.878 51-51v-1.5c0-4.136 3.364-7.5 7.5-7.5s7.5 3.364 7.5 7.5v1.5z"/>
    <path d="m256 146c26.468 0 48-21.533 48-48s-21.532-48-48-48c-26.467 0-48 21.533-48 48s21.533 48 48 48zm0-81c18.196 0 33 14.804 33 33 0 15.616-10.907 28.724-25.5 32.13v-23.305c5.943-.962 10.5-6.114 10.5-12.325 0-6.893-5.607-12.5-12.5-12.5h-11c-6.893 0-12.5 5.607-12.5 12.5 0 6.21 4.557 11.363 10.5 12.325v23.305c-14.593-3.406-25.5-16.514-25.5-32.13 0-18.196 14.804-33 33-33z"/>
    <path d="m343.5 109.5c4.143 0 7.5-3.358 7.5-7.5v-15c0-4.142-3.357-7.5-7.5-7.5s-7.5 3.358-7.5 7.5v15c0 4.142 3.358 7.5 7.5 7.5z"/>
    <path d="m168.5 79.5c-4.142 0-7.5 3.358-7.5 7.5v15c0 4.142 3.358 7.5 7.5 7.5s7.5-3.358 7.5-7.5v-15c0-4.142-3.358-7.5-7.5-7.5z"/>
  </g>
</svg>