<svg id="Capa_1" enable-background="new 0 0 511 511" height="512" viewBox="0 0 511 511" width="512" xmlns="http://www.w3.org/2000/svg">
  <path fill="#999" d="m511 263.5v-176h-61v-86h-450v202h67v60.5c0 25.089 20.411 45.5 45.5 45.5s45.5-20.411 45.5-45.5v-60.5h292v-86h31v116h-240v68h-42.5v208h115v-208h-42.5v-38zm-91-232v80.452c-56.105-3.589-61.438-20.08-125.336-19.643-71.304-.272-71.603 19.736-140.335 20-61.442.152-66.114-16.723-124.329-19.635v-61.174zm-292 142v90.5c0 8.547-6.953 15.5-15.5 15.5s-15.5-6.953-15.5-15.5v-90.5h-67v-50.784c55.301 3.798 60.923 20.026 124.329 19.591 71.304.272 71.603-19.736 140.335-20 61.9-.136 66.334 16.956 125.336 19.678v31.515zm155.5 306h-55v-148h55z"/>
</svg>